<svg width="18" height="18" viewBox="0 0 18 18" fill="none" xmlns="http://www.w3.org/2000/svg">
<path fill-rule="evenodd" clip-rule="evenodd" d="M15.0832 7.60633C16.7264 7.79702 18 9.15043 18 10.7917C18 12.408 16.7648 13.7451 15.1579 13.9675V14H14.6842H9.47369H3.78949H3.78947C1.69661 14 9.53674e-06 12.3584 9.53674e-06 10.3333C9.53674e-06 8.30829 1.69662 6.66667 3.78949 6.66667C3.89685 6.66667 4.00316 6.67099 4.10826 6.67946C4.88484 4.53659 6.99381 3 9.47369 3C12.2985 3 14.6421 4.99379 15.0832 7.60633ZM7.81577 11.7368L11.3684 8.95833L7.81577 6.17983V11.7368Z" fill="currentColor"/>
</svg>
