<svg width="18" height="18" viewBox="0 0 18 18" fill="none" xmlns="http://www.w3.org/2000/svg">
<path fill-rule="evenodd" clip-rule="evenodd" d="M17.3566 5.02412L12.5635 8.04825V6.37885L10.0223 7.07316L8.09608 11.2831L7.9392 11.626L7.61794 11.7855L1.75979 14.6955L0.999798 12.8125L6.53668 10.0621L8.51005 5.7491L8.71411 5.30311L9.15812 5.1818L12.5635 4.25138V2L17.3566 5.02412ZM9.87321 14.2087L9.49666 14.1854L9.22793 13.8918L8.16281 12.7278L9.50843 11.2883L10.3048 12.1586L12.5635 12.2982V10.1479L17.3566 13.172L12.5635 16.1961V14.375L9.87321 14.2087ZM5.34028 5.58473L6.93796 7.9127L5.4077 9.11956L3.96831 7.02223L1.01538 5.62159L1.74419 3.72346L4.93955 5.23909L5.18199 5.35409L5.34028 5.58473Z" fill="currentColor"/>
</svg>
