<svg width="18" height="18" viewBox="0 0 18 18" fill="none" xmlns="http://www.w3.org/2000/svg">
<mask id="path-1-inside-1" fill="currentColor">
<path fill-rule="evenodd" clip-rule="evenodd" d="M1 9.00005V6.66664H3.33339L8 2L8 16L3.33328 11.3333H1V9.00005Z"/>
</mask>
<path fill-rule="evenodd" clip-rule="evenodd" d="M1 9.00005V6.66664H3.33339L8 2L8 16L3.33328 11.3333H1V9.00005Z" fill="currentColor"/>
<path d="M1 6.66664V5.66664H0V6.66664H1ZM3.33339 6.66664V7.66664H3.7476L4.0405 7.37375L3.33339 6.66664ZM8 2L9 2L9 -0.414225L7.29289 1.2929L8 2ZM8 16L7.2929 16.7071L9 18.4142L9 16L8 16ZM3.33328 11.3333L4.04038 10.6262L3.74749 10.3333H3.33328V11.3333ZM1 11.3333H0V12.3333H1V11.3333ZM2 9.00005V6.66664H0V9.00005H2ZM1 7.66664H3.33339V5.66664H1V7.66664ZM4.0405 7.37375L8.70711 2.7071L7.29289 1.2929L2.62628 5.95954L4.0405 7.37375ZM7 2L7 16L9 16L9 2L7 2ZM8.7071 15.2929L4.04038 10.6262L2.62617 12.0404L7.2929 16.7071L8.7071 15.2929ZM3.33328 10.3333H1V12.3333H3.33328V10.3333ZM2 11.3333V9.00005H0V11.3333H2Z" fill="currentColor" mask="url(#path-1-inside-1)"/>
<path d="M11 6L12.5 9.5L11 13" stroke="currentColor" stroke-width="2"/>
</svg>
